<?xml version="1.0" encoding="UTF-8"?>
<svg width="1200pt" height="1200pt" version="1.1" viewBox="0 0 1200 1200" xmlns="http://www.w3.org/2000/svg">
 <path d="m825 750c0 75-112.5 75-112.5 0s112.5-75 112.5 0"/>
 <path d="m1087.5 712.5h-150c-20.719 0-37.5 16.781-37.5 37.5s16.781 37.5 37.5 37.5h150c20.719 0 37.5-16.781 37.5-37.5s-16.781-37.5-37.5-37.5z"/>
 <path d="m1087.5 562.5h-284.63l-44.625-45 31.875-63.375c12.609-25.359 38.438-41.484 66.75-41.625h230.63c20.719 0 37.5-16.781 37.5-37.5s-16.781-37.5-37.5-37.5h-230.63c-56.719 0.09375-108.52 32.156-133.87 82.875l-37.5 75-20.625 7.125c-60.703 20.344-101.86 76.969-102.38 141v144c0.14062 36.328 13.453 71.391 37.5 98.625v51.375c0 19.875 7.9219 38.953 21.984 53.016s33.141 21.984 53.016 21.984h112.5c19.875 0 38.953-7.9219 53.016-21.984s21.984-33.141 21.984-53.016h225c20.719 0 37.5-16.781 37.5-37.5s-16.781-37.5-37.5-37.5h-262.5c-20.719 0-37.5 16.781-37.5 37.5v37.5h-112.5v-66.75c-0.046875-10.594-4.5-20.672-12.375-27.75-15.844-14.109-24.984-34.266-25.125-55.5v-144c0.14062-32.203 20.812-60.75 51.375-70.875l13.5-4.875 47.625 47.625c14.016 14.062 33 22.031 52.875 22.125h284.63c20.719 0 37.5-16.781 37.5-37.5s-16.781-37.5-37.5-37.5z"/>
 <path d="m354.37 668.63c6.0469 4.2188 13.266 6.4688 20.625 6.375 12.562-0.046875 24.234-6.375 31.125-16.875l75-112.5c7.2656-11.25 8.0156-25.547 1.875-37.5-6.2812-12.469-19.031-20.438-33-20.625h-79.875l37.5-54.375c9.1406-17.062 3.7969-38.297-12.328-48.984s-37.781-7.3594-49.922 7.7344l-75 112.5c-6.7031 11.625-6.7031 25.875 0 37.5 5.7188 11.484 16.875 19.266 29.625 20.625h79.875l-37.5 54.375c-5.2969 8.4375-6.9844 18.656-4.7344 28.359s8.25 18.141 16.734 23.391z"/>
 <path d="m585 406.13c8.4375 17.719 29.109 25.969 47.391 18.891 18.328-7.0781 28.078-27.094 22.359-45.891-33.984-87.75-107.16-154.45-197.63-180.19-90.516-25.734-187.82-7.5469-262.92 49.125-75.094 56.719-119.2 145.36-119.2 239.44 0 276.74 264.37 506.26 275.63 516 14.016 12 34.734 12 48.75 0 34.688-30.844 66.891-64.312 96.375-100.12 13.266-15.938 11.062-39.609-4.875-52.875s-39.609-11.062-52.875 4.875c-19.828 23.812-40.875 46.594-63 68.25-62.625-61.125-225-240-225-436.13-0.1875-70.688 32.859-137.34 89.25-180 56.344-42.656 129.52-56.344 197.48-36.984 67.969 19.406 122.9 69.609 148.26 135.61z"/>
</svg>
