<?xml version="1.0" standalone="no"?>
<!DOCTYPE svg PUBLIC "-//W3C//DTD SVG 20010904//EN"
 "http://www.w3.org/TR/2001/REC-SVG-20010904/DTD/svg10.dtd">
<svg version="1.0" xmlns="http://www.w3.org/2000/svg"
 width="959.000000pt" height="960.000000pt" viewBox="0 0 959.000000 960.000000"
 preserveAspectRatio="xMidYMid meet">

<g transform="translate(0.000000,960.000000) scale(0.100000,-0.100000)"
fill="#000000" stroke="none">
<path d="M3210 9334 c-191 -18 -422 -80 -583 -157 -127 -61 -342 -192 -456
-277 -250 -189 -480 -501 -594 -805 -23 -62 -93 -296 -132 -440 -7 -27 -47
-171 -88 -320 -42 -148 -85 -304 -96 -345 -11 -41 -99 -361 -196 -710 -181
-650 -206 -742 -250 -902 -32 -115 -50 -181 -71 -255 -9 -32 -20 -71 -24 -88
-4 -16 -24 -88 -44 -160 -41 -149 -48 -173 -116 -425 -27 -102 -57 -210 -65
-240 -157 -573 -161 -594 -172 -835 -17 -391 91 -754 340 -1142 139 -216 273
-362 462 -503 209 -156 360 -229 677 -326 100 -30 219 -67 263 -81 83 -26 114
-35 255 -76 47 -14 167 -50 268 -81 409 -125 557 -171 757 -231 116 -34 260
-79 320 -98 61 -19 232 -72 380 -117 149 -44 281 -85 295 -90 14 -4 72 -23
130 -40 58 -17 148 -45 200 -61 52 -15 176 -53 275 -83 99 -30 248 -75 330
-101 385 -121 478 -138 745 -139 329 0 537 50 843 205 452 228 790 606 1005
1124 55 133 83 222 143 455 50 195 112 430 154 590 13 47 42 157 65 245 23 88
55 207 70 265 15 58 49 186 75 285 50 191 118 447 135 505 9 33 24 91 95 360
15 58 52 195 81 305 30 110 65 241 78 290 57 218 114 430 186 695 117 429 129
487 151 720 26 276 -23 598 -131 870 -206 521 -673 961 -1220 1152 -127 45
-166 55 -1145 303 -203 52 -424 108 -490 125 -686 178 -2373 598 -2465 615
-85 15 -355 27 -440 19z m334 -104 c111 -11 182 -25 376 -74 74 -19 236 -60
360 -91 124 -31 261 -65 305 -76 135 -34 1096 -277 1340 -339 127 -32 374 -95
550 -140 176 -45 379 -96 450 -115 72 -18 247 -63 390 -100 326 -83 404 -106
517 -155 212 -92 377 -200 532 -350 307 -295 494 -674 541 -1098 19 -162 19
-247 0 -418 -21 -201 -36 -274 -115 -564 -26 -96 -62 -231 -80 -300 -18 -69
-48 -181 -67 -249 -18 -68 -54 -203 -79 -300 -25 -97 -61 -231 -79 -297 -19
-67 -39 -139 -44 -160 -14 -59 -67 -261 -102 -392 -17 -65 -55 -205 -84 -312
-29 -107 -65 -242 -80 -300 -15 -58 -44 -168 -65 -245 -21 -77 -57 -212 -80
-300 -23 -88 -55 -207 -71 -265 -56 -209 -90 -339 -150 -570 -91 -354 -140
-492 -253 -719 -240 -476 -670 -838 -1142 -960 -183 -48 -482 -60 -661 -27
-111 20 -177 39 -903 261 -102 31 -201 61 -220 67 -50 14 -480 145 -570 173
-113 35 -439 135 -490 150 -25 7 -81 24 -125 38 -167 52 -459 142 -710 217
-143 43 -298 90 -345 105 -47 15 -105 33 -130 40 -224 64 -603 183 -684 215
-115 45 -246 117 -356 196 -89 63 -183 144 -176 151 3 3 44 -19 93 -49 158
-96 205 -115 523 -209 226 -66 342 -101 530 -159 69 -22 271 -82 450 -135 179
-53 345 -103 370 -110 42 -13 469 -140 570 -170 25 -7 266 -79 535 -160 270
-80 549 -164 620 -185 72 -21 229 -68 350 -104 323 -97 345 -101 585 -101 174
1 220 4 305 23 298 66 562 207 782 415 141 134 245 279 343 482 81 165 111
252 180 520 57 219 68 263 98 375 11 41 41 154 67 250 26 96 55 207 65 245 10
39 33 124 50 190 36 138 86 328 140 530 21 77 54 203 74 280 21 77 47 174 58
215 33 122 63 235 108 405 23 88 53 201 66 250 13 50 49 187 80 305 31 118 74
283 96 365 22 83 57 218 79 300 21 83 50 193 64 245 107 399 120 471 120 700
0 153 -4 204 -23 295 -70 335 -208 593 -446 830 -136 135 -230 206 -388 288
-170 90 -206 100 -1118 331 -228 57 -522 132 -652 165 -582 149 -745 190
-1438 365 -404 101 -769 193 -810 204 -195 52 -236 57 -463 57 -238 0 -248 8
-50 39 165 27 323 32 487 16z m-249 -105 c60 -9 179 -33 265 -54 203 -51 1398
-353 1705 -431 300 -77 760 -193 1240 -315 703 -178 800 -204 882 -234 435
-160 786 -521 933 -959 60 -180 73 -266 74 -492 0 -254 2 -246 -134 -756 -11
-39 -37 -140 -59 -225 -22 -85 -52 -197 -66 -249 -14 -52 -47 -180 -74 -285
-27 -104 -64 -244 -82 -310 -17 -66 -49 -185 -70 -265 -22 -80 -59 -221 -83
-315 -25 -93 -62 -235 -84 -315 -22 -80 -52 -192 -67 -250 -15 -58 -44 -168
-65 -245 -37 -135 -53 -194 -119 -447 -94 -357 -114 -433 -141 -532 -11 -44
-43 -166 -71 -270 -85 -331 -97 -374 -134 -483 -195 -571 -642 -972 -1208
-1084 -78 -16 -142 -21 -272 -21 -193 0 -266 12 -495 82 -187 57 -1189 357
-1275 381 -38 11 -122 36 -185 55 -63 20 -331 100 -595 179 -264 79 -615 184
-780 233 -165 50 -421 126 -570 171 -372 111 -387 116 -500 172 -200 98 -434
304 -564 499 -276 413 -356 934 -219 1440 11 41 24 89 28 105 8 28 26 93 54
195 7 25 28 99 45 165 77 286 112 416 136 500 14 50 32 115 40 145 13 46 120
435 185 670 9 36 30 110 45 165 14 55 36 132 47 170 25 90 66 236 83 300 7 28
33 122 58 210 25 88 61 219 81 290 19 72 55 202 80 290 24 88 54 194 65 235
11 41 52 190 91 330 39 140 78 279 86 309 74 275 227 555 409 749 262 278 573
445 925 496 130 19 227 19 355 1z"/>
<path d="M2935 9015 c-416 -66 -779 -308 -1017 -680 -116 -180 -168 -309 -254
-630 -9 -33 -20 -71 -24 -85 -4 -14 -15 -52 -24 -85 -9 -33 -32 -118 -52 -190
-19 -71 -42 -155 -50 -185 -8 -30 -28 -102 -44 -160 -25 -90 -152 -548 -195
-705 -37 -136 -54 -197 -75 -270 -12 -44 -26 -93 -30 -110 -25 -93 -321 -1165
-329 -1190 -6 -16 -24 -84 -41 -150 -18 -66 -78 -289 -135 -495 -137 -501
-139 -510 -140 -760 0 -232 14 -333 71 -507 119 -366 392 -692 714 -853 110
-55 244 -100 710 -236 47 -14 105 -31 130 -39 25 -7 83 -25 130 -38 47 -14
207 -62 355 -107 149 -45 509 -153 800 -240 292 -87 600 -179 685 -205 85 -25
184 -55 220 -65 36 -10 155 -46 265 -79 110 -33 216 -64 235 -69 19 -6 109
-33 200 -60 367 -112 431 -125 635 -125 287 0 528 74 775 241 225 151 390 343
513 594 71 145 103 249 233 753 14 55 30 111 35 125 5 14 29 106 54 205 26 99
55 214 67 255 30 112 102 381 173 650 13 47 37 139 55 205 17 66 38 145 46
175 8 30 26 98 40 150 14 52 36 136 49 185 13 50 35 131 48 180 35 131 91 342
127 480 30 114 59 224 100 380 10 39 33 124 50 190 17 66 44 167 59 225 16 58
41 150 55 205 14 55 42 158 61 229 61 228 70 291 70 506 0 216 -16 315 -77
489 -123 347 -397 654 -725 812 -127 61 -253 99 -703 213 -228 57 -541 137
-695 176 -154 39 -464 118 -690 175 -1133 286 -1579 399 -1780 450 -336 85
-487 101 -680 70z m466 -101 c46 -8 261 -61 479 -116 217 -55 411 -104 430
-108 19 -4 251 -62 515 -129 264 -67 710 -180 990 -251 1013 -256 1406 -357
1479 -382 102 -34 256 -113 351 -180 413 -291 631 -797 564 -1309 -12 -90
-105 -467 -194 -789 -13 -47 -36 -130 -50 -185 -14 -55 -48 -185 -76 -290 -27
-104 -67 -257 -89 -340 -22 -82 -51 -190 -64 -240 -14 -49 -41 -153 -61 -230
-20 -77 -45 -169 -55 -205 -10 -36 -37 -135 -59 -220 -22 -85 -51 -195 -64
-245 -14 -49 -43 -162 -67 -250 -64 -241 -105 -397 -209 -785 -33 -124 -80
-304 -105 -400 -132 -505 -144 -544 -217 -695 -192 -401 -524 -668 -959 -772
-59 -14 -116 -18 -260 -17 -175 0 -192 2 -314 33 -72 18 -145 39 -164 47 l-34
14 24 32 c74 98 241 344 242 357 1 9 -7 16 -17 16 -11 0 -41 -34 -80 -89 -34
-49 -67 -91 -73 -93 -6 -2 -18 30 -28 74 -39 179 -46 197 -67 176 -11 -11 -9
-23 32 -214 l23 -107 -53 -71 c-29 -39 -54 -71 -55 -71 -10 0 -106 32 -106 35
0 2 11 15 23 27 44 44 103 265 88 330 -12 51 -46 95 -91 118 -51 26 -87 25
-140 -3 -49 -26 -89 -90 -89 -142 -1 -67 65 -156 126 -171 13 -4 47 -4 74 -1
48 6 50 5 43 -16 -25 -81 -63 -112 -130 -104 -33 3 -54 13 -78 36 -37 36 -66
41 -66 10 0 -13 -5 -19 -12 -16 -37 14 -429 133 -813 247 -71 21 -251 75 -400
120 -148 45 -337 101 -420 126 -413 123 -398 118 -391 142 3 9 8 40 12 67 3
28 8 53 11 57 2 4 22 -6 45 -22 49 -36 92 -39 149 -10 78 40 108 136 68 217
-30 60 -65 85 -126 90 -90 8 -144 -49 -163 -171 -15 -95 -42 -219 -50 -229 -3
-4 -35 2 -71 14 -35 12 -174 54 -309 94 -555 165 -709 214 -828 264 -267 111
-517 350 -655 627 -49 97 -112 289 -133 404 -22 117 -25 396 -5 520 12 78 60
279 80 340 5 14 16 52 25 85 45 169 340 1244 366 1335 27 94 45 162 111 410
11 41 26 95 34 120 8 25 21 70 29 100 19 71 189 690 220 800 13 47 42 153 65
235 292 1063 265 976 350 1150 209 428 596 719 1066 804 84 15 286 12 376 -5z
m-451 -6961 c52 -47 54 -136 5 -185 -91 -91 -222 32 -161 150 33 63 106 80
156 35z m2098 -628 c26 -29 32 -43 32 -80 0 -57 -21 -100 -60 -120 -37 -19
-63 -19 -101 0 -69 36 -91 137 -42 195 52 62 117 64 171 5z"/>
<path d="M2980 8354 c-287 -63 -548 -267 -681 -534 -42 -85 -69 -165 -129
-395 -23 -88 -71 -263 -105 -390 -34 -126 -82 -302 -105 -390 -23 -88 -95
-353 -160 -590 -65 -236 -136 -502 -160 -590 -23 -88 -49 -182 -56 -210 -8
-27 -32 -117 -54 -200 -22 -82 -44 -166 -50 -185 -5 -19 -35 -127 -65 -240
-30 -113 -62 -230 -70 -260 -19 -69 -80 -295 -135 -503 -31 -119 -43 -184 -47
-265 -19 -359 138 -681 423 -868 109 -72 160 -90 734 -259 584 -172 635 -187
760 -225 52 -15 268 -78 480 -140 212 -62 412 -120 445 -130 33 -10 94 -28
135 -40 41 -12 95 -28 120 -36 343 -102 1018 -299 1095 -319 327 -87 654 -2
898 234 163 157 229 290 326 666 17 66 36 136 41 155 5 19 23 87 40 150 17 63
48 180 69 260 22 80 69 260 106 400 70 267 168 630 185 690 14 50 81 297 130
485 23 88 53 198 65 245 13 47 46 173 74 280 28 107 68 260 90 340 144 538
200 755 217 840 18 89 20 251 4 340 -54 307 -263 582 -545 716 -90 43 -118 51
-715 204 -146 37 -364 93 -485 124 -762 197 -2381 607 -2514 637 -101 23 -264
24 -361 3z m400 -59 c69 -20 586 -153 660 -170 59 -13 162 -39 650 -164 173
-44 439 -111 590 -150 151 -38 338 -86 415 -106 77 -20 226 -58 330 -85 105
-27 271 -69 370 -95 99 -25 243 -62 320 -81 203 -52 260 -70 339 -110 241
-122 414 -342 489 -624 15 -56 20 -106 20 -200 0 -130 -5 -158 -87 -465 -32
-122 -132 -499 -161 -610 -13 -49 -31 -117 -40 -150 -9 -33 -27 -100 -40 -150
-13 -49 -31 -117 -40 -150 -9 -33 -32 -120 -51 -194 -19 -74 -46 -175 -59
-225 -14 -50 -32 -116 -40 -146 -8 -30 -30 -111 -49 -180 -19 -69 -51 -188
-71 -265 -20 -77 -43 -165 -52 -195 -25 -92 -29 -109 -73 -275 -23 -88 -57
-214 -75 -280 -19 -66 -50 -183 -70 -260 -35 -140 -93 -354 -167 -625 -65
-238 -138 -365 -292 -507 -95 -87 -211 -154 -341 -196 -96 -31 -107 -32 -255
-31 -168 1 -149 -3 -470 94 -58 17 -136 40 -175 52 -38 11 -83 24 -100 29 -53
16 -593 175 -795 234 -107 32 -215 63 -240 70 -25 8 -63 19 -85 25 -22 6 -193
57 -380 111 -187 55 -371 109 -410 120 -173 51 -242 71 -265 79 -14 5 -63 20
-110 33 -47 14 -164 49 -260 77 -96 28 -195 58 -220 65 -331 97 -382 117 -483
183 -176 115 -303 293 -368 517 -21 70 -24 102 -24 245 l0 165 48 175 c75 276
176 652 218 810 22 80 50 186 64 235 14 50 43 155 64 235 108 407 155 581 170
635 l17 60 127 0 c142 0 138 3 111 -75 -9 -25 -17 -79 -17 -120 -1 -89 21
-148 77 -202 113 -110 267 -109 412 3 28 21 54 39 57 39 3 0 11 -19 17 -42 57
-217 250 -394 477 -438 49 -10 65 -9 96 3 63 27 63 79 -2 224 -23 50 -41 93
-41 97 0 15 21 3 57 -32 84 -84 187 -142 253 -142 33 0 48 6 71 29 25 26 29
37 29 88 0 32 -8 95 -17 140 -16 78 -16 85 0 137 22 69 63 106 176 159 260
121 313 148 380 192 150 99 315 282 408 454 47 87 120 280 144 378 30 125 37
337 15 463 -33 187 -115 379 -228 531 -52 71 -218 259 -271 307 -26 24 -57 27
-64 5 -2 -6 45 -65 106 -130 143 -153 220 -256 280 -373 181 -353 176 -732
-16 -1114 -70 -139 -129 -223 -233 -327 -133 -133 -194 -170 -553 -337 -113
-53 -147 -80 -182 -143 -23 -43 -28 -64 -27 -118 0 -36 8 -93 16 -126 20 -75
20 -115 0 -143 -20 -29 -43 -28 -112 5 -39 19 -87 57 -150 120 -98 99 -124
111 -144 68 -15 -34 2 -100 59 -226 23 -53 43 -104 43 -113 0 -46 -110 -31
-239 31 -138 66 -238 193 -286 363 -31 110 -44 114 -135 35 -136 -118 -276
-125 -369 -19 -66 75 -73 142 -29 287 18 62 19 70 4 91 -15 23 -20 24 -136 24
-73 0 -126 4 -132 10 -8 8 -8 23 0 54 22 80 142 523 156 573 7 28 26 97 41
155 15 58 63 236 106 395 43 160 86 315 94 345 52 194 77 275 101 326 96 211
294 402 509 492 123 51 191 62 345 58 91 -3 166 -11 200 -21z"/>
<path d="M2544 7775 c-33 -51 18 -95 110 -95 37 0 48 4 62 25 33 51 -18 95
-110 95 -37 0 -48 -4 -62 -25z m124 -37 c-3 -7 -10 -13 -16 -12 -7 1 -23 2
-37 3 -42 2 -28 21 16 21 28 0 39 -4 37 -12z"/>
<path d="M2495 7461 c-101 -27 -206 -117 -253 -219 -35 -75 -43 -207 -17 -292
77 -253 405 -322 601 -126 91 92 137 231 114 349 -22 115 -88 206 -192 262
-45 25 -66 29 -138 32 -47 1 -98 -1 -115 -6z m232 -77 c59 -29 107 -78 137
-143 40 -88 23 -262 -31 -319 -10 -11 -11 -7 -5 20 30 135 -29 268 -143 319
-54 25 -121 25 -134 0 -6 -10 -8 -21 -5 -23 2 -3 -1 -17 -7 -32 -17 -37 -52
-32 -59 8 -8 46 -28 42 -83 -15 -70 -72 -91 -133 -85 -240 4 -62 2 -75 -7 -61
-41 60 -48 198 -14 288 54 145 200 243 339 228 25 -3 68 -16 97 -30z m-28
-192 c19 -16 46 -48 59 -73 20 -37 23 -55 20 -115 -4 -86 -35 -140 -105 -185
-90 -57 -224 -33 -277 49 -59 90 -52 197 19 286 15 19 15 19 35 -2 41 -44 121
-15 134 49 6 30 8 31 43 26 20 -4 52 -19 72 -35z"/>
<path d="M3932 6888 c-15 -15 -16 -82 -1 -111 24 -47 51 -67 91 -67 33 0 40 4
49 28 23 60 -36 162 -95 162 -18 0 -37 -5 -44 -12z m82 -72 c20 -43 20 -56 0
-56 -23 0 -43 29 -44 63 0 38 24 34 44 -7z"/>
<path d="M3360 6841 c-134 -28 -238 -132 -276 -276 -49 -181 53 -369 226 -421
285 -85 542 239 408 515 -61 127 -225 209 -358 182z m153 -67 c63 -21 131 -84
161 -149 43 -89 33 -213 -23 -295 -7 -10 -8 10 -4 62 7 97 0 134 -38 192 -34
50 -93 90 -150 100 -48 8 -69 -1 -69 -29 0 -39 -11 -55 -36 -55 -20 0 -24 5
-24 30 0 26 -4 30 -28 30 -37 0 -96 -50 -133 -114 l-31 -51 7 45 c8 59 43 118
103 171 82 74 171 95 265 63z m7 -173 c45 -35 80 -104 80 -156 0 -94 -58 -187
-138 -221 -47 -20 -131 -20 -169 0 -64 33 -113 114 -113 188 0 39 35 128 65
163 l25 30 23 -27 c17 -21 32 -28 58 -28 39 0 61 18 78 63 13 34 36 31 91 -12z"/>
<path d="M2505 6444 c-24 -26 -30 -55 -25 -114 5 -56 66 -127 135 -156 98 -40
235 5 235 77 0 34 -27 54 -85 64 -62 10 -119 49 -155 105 -38 59 -67 65 -105
24z m198 -163 c32 -11 64 -21 72 -21 24 0 17 -26 -10 -38 -63 -29 -157 -5
-198 50 -33 44 -40 70 -27 103 l11 28 47 -50 c34 -36 63 -56 105 -72z"/>
<path d="M4363 5160 c-130 -79 -32 -276 109 -217 26 11 41 27 58 61 22 46 22
48 5 92 -29 77 -105 105 -172 64z m116 -56 c12 -15 21 -37 21 -49 0 -12 -9
-34 -21 -49 -16 -20 -29 -26 -59 -26 -30 0 -43 6 -59 26 -12 15 -21 37 -21 49
0 12 9 34 21 49 16 20 29 26 59 26 30 0 43 -6 59 -26z"/>
<path d="M3768 4270 c-245 -85 -442 -313 -503 -583 -30 -137 -16 -346 32 -477
88 -235 310 -427 553 -476 290 -58 601 78 774 340 103 156 147 298 147 481 1
186 -44 329 -144 461 -54 71 -89 98 -118 89 -16 -5 -39 -40 -39 -60 0 -2 21
-27 46 -57 50 -58 103 -161 130 -253 26 -84 25 -276 -1 -365 -72 -252 -247
-444 -469 -516 -116 -38 -266 -38 -382 0 -210 68 -370 243 -430 471 -24 92
-25 264 -1 355 23 88 87 214 139 275 88 104 205 189 303 221 75 24 93 56 55
94 -24 24 -21 24 -92 0z"/>
<path d="M1762 2339 c-68 -14 -112 -79 -112 -162 0 -125 127 -208 220 -144
145 97 59 342 -108 306z m98 -66 c33 -30 48 -88 36 -138 -19 -76 -121 -102
-170 -45 -93 112 28 277 134 183z"/>
<path d="M2306 2258 c-25 -85 -66 -285 -66 -320 0 -38 5 -50 26 -67 35 -27 84
-28 84 -2 0 12 -9 20 -29 24 -42 9 -46 35 -20 148 l22 99 41 -2 c52 -4 57 22
8 36 -31 9 -33 11 -30 50 2 32 -1 41 -15 44 -9 2 -19 -2 -21 -10z"/>
<path d="M2057 2219 c-44 -23 -73 -66 -82 -121 -11 -61 32 -140 90 -168 49
-23 100 -24 100 0 0 8 -13 17 -30 20 -95 20 -139 101 -100 183 28 60 85 77
173 51 18 -5 22 -2 22 14 0 42 -108 55 -173 21z"/>
<path d="M2495 2106 c-38 -17 -60 -42 -80 -89 -25 -59 -14 -126 27 -178 42
-51 129 -67 185 -34 65 38 92 140 59 219 -30 71 -126 112 -191 82z m109 -47
c54 -42 71 -112 41 -169 -56 -109 -199 -61 -197 66 1 94 91 154 156 103z"/>
<path d="M3106 1933 c-16 -55 -36 -159 -36 -189 0 -47 34 -110 70 -129 43 -22
112 -19 144 6 35 27 62 81 75 149 6 30 13 64 16 76 8 26 -17 51 -32 32 -5 -7
-18 -51 -28 -97 -14 -64 -26 -90 -48 -112 -37 -38 -84 -39 -119 -4 -42 42 -44
84 -11 203 8 29 12 60 9 68 -8 20 -34 18 -40 -3z"/>
<path d="M3435 1815 c-51 -50 -23 -110 74 -160 30 -15 57 -36 64 -52 10 -22 8
-28 -13 -45 -28 -23 -67 -19 -136 15 -33 16 -47 18 -56 9 -17 -17 5 -38 68
-62 65 -24 105 -25 143 -5 33 16 41 33 41 80 0 27 -8 40 -37 64 -21 17 -42 31
-47 31 -22 0 -76 52 -76 74 0 42 58 48 127 14 31 -16 46 -19 54 -11 16 16 2
32 -48 54 -64 27 -128 25 -158 -6z"/>
<path d="M3759 1723 c-48 -29 -79 -90 -79 -154 0 -92 58 -158 148 -167 54 -5
92 10 92 35 0 13 -8 15 -46 9 -50 -6 -98 9 -126 40 -16 19 -36 94 -24 94 3 0
53 -14 111 -31 58 -17 112 -28 120 -25 11 4 15 21 15 62 0 46 -5 64 -26 91
-46 61 -128 82 -185 46z m138 -56 c13 -13 26 -40 30 -61 l6 -38 -34 7 c-75 16
-159 47 -159 60 0 7 14 25 32 40 26 22 39 26 67 21 19 -3 45 -16 58 -29z"/>
<path d="M4090 1633 c-44 -23 -65 -60 -90 -163 -22 -85 -21 -110 3 -110 8 0
20 28 32 78 23 99 41 135 76 156 39 23 81 13 114 -26 30 -36 31 -66 6 -172
-20 -84 -18 -109 8 -104 20 4 49 119 50 198 2 118 -101 192 -199 143z"/>
<path d="M4409 1530 c-53 -28 -83 -93 -77 -166 5 -61 26 -96 78 -131 40 -28
130 -32 150 -8 19 23 5 30 -60 30 -65 0 -98 21 -120 76 -24 56 -12 59 112 23
80 -23 117 -29 126 -22 19 16 14 79 -10 128 -42 83 -122 111 -199 70z m144
-61 c27 -30 38 -89 16 -89 -32 0 -172 46 -176 57 -3 8 5 25 17 38 41 43 99 41
143 -6z"/>
<path d="M4729 1445 c-39 -21 -56 -53 -78 -148 -23 -94 -26 -123 -11 -132 13
-8 37 34 45 80 20 120 58 175 121 175 18 0 36 5 40 11 17 29 -71 39 -117 14z"/>
</g>
</svg>
