<?xml version="1.0" encoding="UTF-8"?>
<svg width="1200pt" height="1200pt" version="1.1" viewBox="0 0 1200 1200" xmlns="http://www.w3.org/2000/svg">
 <path d="m270.29 1029.3c2.3281 1.3516 192.96 112.03 190.58 110.64 0.03125 0.019531 0.050781 0.046875 0.082031 0.066406 9.6875 5.5898 21.238 3.6289 30.844-1.9453l420.59-242.8c18.461-10.656 32.855-35.711 32.812-57-0.38281-135.84-1.4297-504.23-1.8125-640.29-0.019531-11.77-4.6484-21.223-12.559-26.434-0.37891-0.29297-0.63281-0.69141-1.0586-0.94141l-190.64-110.66c-5.0859-2.9609-15.941-6.6094-30.824 1.9453-2.2812 1.3164-422.69 244.03-420.37 242.69-18.512 10.676-32.965 35.609-33.055 56.859-0.003906 0.12109-0.089843 0.21875-0.089843 0.33984l0.39844 128.2c0.023438 6.2344 5.0859 11.277 11.32 11.277h0.042969c6.2344-0.023437 11.297-5.1094 11.277-11.363l-0.32812-108.45c2.2969 1.332 179.21 104.08 167.93 97.527l1.7031 626.85-165.34-96.004c-0.83984-0.50781-2.4102-2.7852-2.4102-7.9141l-1.0625-346.61c-0.023438-6.2344-5.0859-11.277-11.32-11.277h-0.042968c-6.2344 0.023437-11.297 5.1094-11.277 11.363l1.0625 346.57c-0.007813 12.246 4.8789 22.195 13.547 27.367zm645.87-839.24c0.72266-0.050781 1.3789-0.050781 1.8203 0.10938 0.125 0.042968 0.32812 0.03125 0.42578 0.09375 1.1484 0.66406 2.3203 3.3164 2.3438 7.7617l1.5195 537.04-452.71 261.38-1.4844-524.05c-0.042969-13.266 10.105-30.777 21.734-37.5l420.46-242.73c0.42578-0.24609 0.75781-0.32812 1.1641-0.52734 1.5703-0.8125 3.0078-1.4062 4.7266-1.5742zm-443.88 930.34c-0.011719-0.003906-0.015625-0.019531-0.027344-0.023437l-0.023437-0.011719c-1.1641-0.70703-2.3203-3.3125-2.3438-7.6836v-90.277l452.46-261.25 0.21875 77.129c0.042969 13.289-10.059 30.758-21.625 37.434l-420.46 242.75c-3.9844 2.2891-7.0156 2.5742-8.1992 1.9258zm247.35-1038.9c4.2227-2.4531 7.0742-2.6094 8.1602-1.9688l165.63 96.16-409.25 236.3c-2.2969-1.332-179.23-104.12-167.95-97.57zm-425.47 246.38c2.2969 1.332 181.8 105.55 170.36 98.902-0.25 0.27734-0.42188 0.63672-0.67188 0.91797-3.2266 3.6523-6.1953 7.6367-8.7031 11.93-0.050781 0.089843-0.11328 0.16406-0.16406 0.25-2.5039 4.3203-4.4805 8.8945-6.0586 13.512-0.12891 0.375-0.36719 0.71875-0.48828 1.0898-2.3945-1.3906-181.42-105.38-170.31-98.918 1.9609-9.9648 8.3281-20.934 16.035-27.684z"/>
 <path d="m266.84 607.13c6.2578-0.023437 11.32-5.1094 11.301-11.344l-0.15625-56.605c-0.023437-6.2578-5.0859-11.297-11.32-11.297h-0.023438c-6.2578 0.023437-11.32 5.1094-11.297 11.344l0.15625 56.605c0.023438 6.2578 5.0859 11.297 11.32 11.297z"/>
 <path d="m586.61 493.09c-0.09375-27.141-22.441-40.055-46.078-26.465-19.523 11.277-34.758 37.676-34.668 60.074 0.046874 27.152 22.621 40.066 46.191 26.422 19.43-11.23 34.598-37.586 34.555-60.031zm-45.883 40.441c-7.9023 4.5352-12.184 3.3125-12.227-6.8984-0.042968-14.305 10.855-33.188 23.348-40.418 7.9375-4.582 12.074-3.1484 12.117 6.9414 0.046875 14.328-10.832 33.188-23.238 40.375z"/>
 <path d="m651.35 495.79c19.523-11.277 34.758-37.676 34.668-60.074-0.046875-27.117-22.547-40.059-46.168-26.422-19.5 11.254-34.734 37.633-34.691 60.074 0.050782 27.305 22.777 39.977 46.191 26.422zm-0.17578-66.906c9.0508-5.2266 12.168-1.9023 12.207 6.8984 0.042969 14.305-10.855 33.188-23.348 40.418-7.9961 4.5703-12.188 3.168-12.227-6.875-0.046875-14.332 10.875-33.234 23.367-40.441z"/>
 <path d="m750.79 438.38c19.434-11.23 34.602-37.59 34.559-60.031-0.09375-27.172-22.547-40.086-46.078-26.465-19.5 11.254-34.715 37.656-34.668 60.074 0.042969 27.125 22.621 40.066 46.188 26.422zm-0.19922-66.906c8.7812-5.0117 12.078-2.2734 12.117 6.9414 0.042969 14.328-10.836 33.188-23.238 40.375-8.4688 4.8516-12.188 2.6367-12.227-6.875-0.046875-14.328 10.879-33.234 23.348-40.441z"/>
 <path d="m838.59 294.53c-19.5 11.254-34.734 37.656-34.691 60.121 0.09375 27.176 22.852 39.926 46.191 26.398 19.5-11.254 34.734-37.656 34.691-60.098-0.09375-26.953-22.48-40.117-46.191-26.422zm0.17969 66.93c-8.2773 4.8203-12.18 2.6406-12.227-6.875-0.042968-14.352 10.879-33.234 23.371-40.418v-0.023438c9-5.1953 12.191-1.957 12.227 6.875 0.042969 14.328-10.879 33.234-23.371 40.441z"/>
 <path d="m686.95 516.88c-70.402 40.641-127.49 139.54-127.27 220.45 0.22656 85.91 63.816 123.49 139.39 79.797 70.535-40.707 127.73-139.81 127.51-220.87-0.22656-85.961-64.27-122.91-139.63-79.375zm0.79688 280.65c-59.879 34.543-105.24 8.6953-105.43-60.254-0.22266-73.695 51.805-163.77 115.95-200.81 59.828-34.531 105.48-9.0469 105.67 59.832 0.22266 73.855-51.914 164.11-116.19 201.23z"/>
 <path d="m684.28 673.71 25.34-14.172c3.0508-1.7031 5.1289-4.7109 5.6602-8.1602 0.53125-3.4492-0.55469-6.9414-2.9414-9.4844l-38.539-40.992c-4.2891-4.5547-11.453-4.7773-16.008-0.48828-4.5547 4.2891-4.7773 11.453-0.48828 16.008l28.613 30.426-25.891 14.484c-6.6172 3.707-7.7539 12.75-2.3867 17.977l55.121 54.082c4.4609 4.3281 11.59 4.332 16.031-0.15625 4.3789-4.4648 4.2891-11.652-0.17578-16.031z"/>
 <path d="m322.5 986.47h0.042968c6.2344-0.023438 11.297-5.1094 11.277-11.363l-0.17578-56.273c-0.023437-6.2344-5.0859-11.277-11.32-11.277h-0.042968c-6.2344 0.023437-11.297 5.1094-11.277 11.363l0.17578 56.273c0.023438 6.2344 5.0859 11.277 11.32 11.277z"/>
 <path d="m362.7 1009.8c5.5938-0.17578 11.344-5.0859 11.32-11.363l-0.17578-56.273c-0.023438-6.2344-5.0859-11.277-11.32-11.277h-0.042969c-6.2344 0.023437-11.297 5.1094-11.277 11.363l0.17578 56.273c0.023438 6.2383 5.0859 11.277 11.32 11.277z"/>
 <path d="m402.89 1033.1h0.023438c6.2578-0.023437 11.32-5.1094 11.297-11.344l-0.15625-56.273c-0.023438-6.2578-5.0859-11.297-11.32-11.297h-0.023437c-6.2578 0.023437-11.32 5.1094-11.297 11.344l0.15625 56.273c0.019531 6.2539 5.082 11.297 11.32 11.297z"/>
</svg>
