<?xml version="1.0" encoding="UTF-8"?>
<svg width="1200pt" height="1200pt" version="1.1" viewBox="0 0 1200 1200" xmlns="http://www.w3.org/2000/svg">
 <path d="m691.48 773.88-55.117-220.46c-2.7148-10.898-10.172-20.008-20.324-24.812-10.152-4.8086-21.926-4.8086-32.078 0-10.152 4.8047-17.609 13.914-20.324 24.812l-55.117 220.45c-36.223 20.25-64.707 51.941-80.988 90.113s-19.438 80.664-8.9766 120.82c10.461 40.156 33.949 75.711 66.785 101.09 32.832 25.375 73.16 39.145 114.66 39.145 41.5 0 81.828-13.766 114.66-39.145 32.836-25.375 56.324-60.93 66.789-101.09 10.461-40.16 7.3047-82.652-8.9766-120.82-16.277-38.172-44.762-69.867-80.984-90.113z"/>
 <path d="m970.24 227.79c-7.7227-7.7969-18.512-11.754-29.441-10.805-10.914 0.87109-20.898 6.4805-27.32 15.344l-158.42 218.08c-4.5742 6.2734-7.0859 13.812-7.1836 21.574-0.097656 7.7617 2.2188 15.363 6.6328 21.75 21.551 31.246 33.059 68.316 32.996 106.27-0.003906 9.9492 3.9453 19.488 10.977 26.523 7.0352 7.0312 16.574 10.98 26.523 10.977h262.5c9.9492 0.003906 19.488-3.9453 26.523-10.977 7.0312-7.0352 10.98-16.574 10.977-26.523 0.19922-69.207-13.383-137.77-39.953-201.67-26.57-63.906-65.598-121.88-114.81-170.55z"/>
 <path d="m445.5 493.73c4.4141-6.3867 6.7305-13.988 6.6328-21.75-0.097656-7.7617-2.6094-15.301-7.1836-21.574l-158.42-218.08c-6.4219-8.8633-16.406-14.473-27.32-15.344-10.934-0.96875-21.73 2.9922-29.441 10.805-49.211 48.664-88.238 106.64-114.81 170.55-26.57 63.902-40.152 132.46-39.953 201.67-0.003906 9.9492 3.9453 19.488 10.977 26.523 7.0352 7.0312 16.574 10.98 26.523 10.977h262.5c9.9492 0.003906 19.488-3.9453 26.523-10.977 7.0312-7.0352 10.98-16.574 10.977-26.523-0.0625-37.957 11.445-75.027 32.996-106.27z"/>
 <path d="m505.63 406.27c4.5547 6.2734 10.938 10.977 18.277 13.469 7.3398 2.4922 15.27 2.6484 22.699 0.44922 34.867-10.18 71.922-10.18 106.79 0 3.4609 1.0156 7.0469 1.5312 10.656 1.5391 12 0.003906 23.273-5.7422 30.32-15.457l158.46-218.08c6.4336-8.8555 8.6797-20.074 6.1523-30.723-2.5273-10.648-9.5742-19.664-19.301-24.684-74.398-37.281-156.47-56.691-239.68-56.691s-165.29 19.41-239.68 56.691c-9.7266 5.0195-16.773 14.035-19.301 24.684-2.5273 10.648-0.28125 21.867 6.1523 30.723z"/>
</svg>
