<?xml version="1.0" encoding="UTF-8"?>
<svg width="1200pt" height="1200pt" version="1.1" viewBox="0 0 1200 1200" xmlns="http://www.w3.org/2000/svg">
 <path d="m193.43 1050c16.688 64.648 75.449 112.5 145.27 112.5s128.59-47.852 145.27-112.5h234.45c16.688 64.648 75.449 112.5 145.27 112.5 69.824 0 128.59-47.852 145.27-112.5h42.227c29.852 0 58.461-11.852 79.539-32.961 21.113-21.074 32.961-49.688 32.961-79.539v-112.5c0-29.852-11.852-58.461-32.961-79.539-21.074-21.113-49.688-32.961-79.539-32.961h-89.324l-81.414-162.82c-19.051-38.102-58.012-62.176-100.61-62.176h-357.3c-42.602 0-81.562 24.074-100.61 62.176l-81.414 162.82h-89.324c-29.852 0-58.461 11.852-79.539 32.961-21.113 21.074-32.961 49.688-32.961 79.539v112.5c0 29.852 11.852 58.461 32.961 79.539 21.074 21.113 49.688 32.961 79.539 32.961zm145.27-112.5c41.398 0 75 33.602 75 75s-33.602 75-75 75c-41.398 0-75-33.602-75-75s33.602-75 75-75zm525 0c41.398 0 75 33.602 75 75s-33.602 75-75 75c-41.398 0-75-33.602-75-75s33.602-75 75-75zm145.27 37.5h42.227c9.9375 0 19.5-3.9375 26.512-10.988 7.0508-7.0117 10.988-16.574 10.988-26.512v-112.5c0-9.9375-3.9375-19.5-10.988-26.512-7.0117-7.0508-16.574-10.988-26.512-10.988h-85.125c-27.227 0-52.312-14.738-65.551-38.551-37.238-68.586-87.148-165.71-87.148-165.71-6.3359-12.711-19.312-20.738-33.523-20.738h-357.3c-14.211 0-27.188 8.0234-33.523 20.738 0 0-55.836 105.04-87.414 164.48-13.051 24.488-38.512 39.789-66.262 39.789h-84.148c-9.9375 0-19.5 3.9375-26.512 10.988-7.0508 7.0117-10.988 16.574-10.988 26.512v112.5c0 9.9375 3.9375 19.5 10.988 26.512 7.0117 7.0508 16.574 10.988 26.512 10.988h42.227c16.688-64.648 75.449-112.5 145.27-112.5s128.59 47.852 145.27 112.5h234.45c16.688-64.648 75.449-112.5 145.27-112.5s128.59 47.852 145.27 112.5z" fill-rule="evenodd"/>
 <path d="m862.5 337.5h75c41.438 0 75-33.562 75-75v-75c0-41.438-33.562-75-75-75h-75c0-41.438-33.562-75-75-75h-525c-41.438 0-75 33.562-75 75v225c0 41.438 33.562 75 75 75h525c41.438 0 75-33.562 75-75zm-150 0h75v-225h-75zm-150-225v225h75v-225zm-150 0v225h75v-225h-75zm-75 0h-75v225h75zm525 75h75v75h-75z" fill-rule="evenodd"/>
</svg>
