<?xml version="1.0" encoding="UTF-8"?>
<svg width="1200pt" height="1200pt" version="1.1" viewBox="0 0 1200 1200" xmlns="http://www.w3.org/2000/svg">
 <path d="m600 562.5c155.06 0 281.26-126.19 281.26-281.26 0-155.06-126.19-281.26-281.26-281.26-155.06 0-281.26 126.19-281.26 281.26 0 155.06 126.19 281.26 281.26 281.26zm-56.25-243.74v-37.5h112.5v37.5c0 31.031-25.219 56.25-56.25 56.25s-56.25-25.219-56.25-56.25zm56.25-243.74c113.72 0 206.26 92.531 206.26 206.26 0 100.92-72.844 185.16-168.74 202.82v-39.562c54.141-16.172 93.75-66.422 93.75-125.76v-75c0-20.719-16.781-37.5-37.5-37.5v-37.5c0-20.719-16.781-37.5-37.5-37.5s-37.5 16.781-37.5 37.5v37.5h-37.5v-37.5c0-20.719-16.781-37.5-37.5-37.5s-37.5 16.781-37.5 37.5v37.5c-20.719 0-37.5 16.781-37.5 37.5v75c0 59.344 39.609 109.59 93.75 125.76v39.562c-95.906-17.672-168.74-101.91-168.74-202.82 0-113.72 92.531-206.26 206.26-206.26z"/>
 <path d="m1112.4 806.76c-5.8594-0.98438-11.484-1.9688-17.016-2.9062-48.328-8.3438-90.375-15.562-212.26-16.312-12.328-18.75-33.656-49.547-60.047-80.578-60.328-70.969-116.44-106.97-166.82-106.97-213.79-0.046875-468.19 0-543.74 0-27.891 0-40.172 14.953-45.047 23.859-13.922 25.594 1.6406 49.688 14.109 69.094 2.7188 4.2188 6.6562 10.312 9.375 15.234-6.375 7.3594-16.781 17.719-23.719 24.703-28.172 28.078-48.516 48.422-48.516 73.312 0 4.4062-3.5625 16.641-6.1875 25.594-5.625 19.078-12.562 42.797-12.562 68.203v112.55c0 42.281 46.172 69.047 80.906 85.453 17.812 8.4375 35.484 15.234 47.766 19.688 24.797 48.75 75.469 82.312 133.82 82.312 55.406 0 103.83-30.188 129.79-74.953h434.16c25.969 44.766 74.391 74.953 129.79 74.953s103.83-30.188 129.79-74.953h76.453c20.719 0 37.5-16.781 37.5-37.5v-168.79c0-63.281-45.141-104.91-87.562-111.98zm-456.19-131.81c12.328 0 47.672 7.7812 109.12 79.828 8.6719 10.172 16.781 20.391 24.188 30.141l-196.4-6.75-21.844-103.22h84.938zm-351.79 0h190.18l21.281 100.55-178.64-6.1406-49.266-61.547zm-41.953 450.05c-41.344 0-75-33.656-75-75s33.656-75 75-75 75 33.656 75 75-33.656 75-75 75zm693.74 0c-41.344 0-75-33.656-75-75s33.656-75 75-75 75 33.656 75 75-33.656 75-75 75zm168.74-74.953h-18.75v-0.046875c0-82.688-67.312-150-150-150-82.734 0-150 67.312-150 150v0.046875h-393.74v-0.046875c0-82.688-67.312-150-150-150-76.125 0-139.18 57-148.69 130.6-18.281-8.625-32.906-17.344-38.812-23.531v-107.06h18.75c9.5156 0 18.188-3.5156 24.797-9.375 15.328 0 21.516 0 30.797-2.0625 28.172-6.2812 38.156-28.078 38.156-44.812 0-15.328-9.3281-29.109-23.578-34.828l-47.625-19.078c1.4062-1.4062 52.453-39.844 52.453-77.391 0-13.5-4.5-25.922-10.5-37.5h62.297l-10.359 20.719c-6.5625 13.078-4.875 28.781 4.2656 40.219l75 93.75c6.8438 8.5312 17.062 13.688 27.984 14.062l542.02 18.703h1.0312c0.65625 0.046875 1.3125 0.046875 1.9688 0.046875 180.19 0 239.34 18.656 240.24 18.984-13.734 1.3125-25.781 10.031-31.125 22.969-5.8125 14.016-2.5781 30.141 8.1094 40.875l37.5 37.5c2.3438 2.3438 4.9688 4.3125 7.7812 5.9062z"/>
 <path d="m262.5 1012.5c-20.719 0-37.5 16.781-37.5 37.5v0.046875c0 20.719 16.781 37.5 37.5 37.5s37.5-16.781 37.5-37.5-16.781-37.547-37.5-37.547z"/>
 <path d="m956.26 1012.5c-20.719 0-37.5 16.781-37.5 37.5v0.046875c0 20.719 16.781 37.5 37.5 37.5s37.5-16.781 37.5-37.5-16.781-37.547-37.5-37.547z"/>
</svg>
