<?xml version="1.0" encoding="UTF-8"?>
<svg width="1200pt" height="1200pt" version="1.1" viewBox="0 0 1200 1200" xmlns="http://www.w3.org/2000/svg">
 <path d="m1137.5 250c0-103.55-83.945-187.5-187.5-187.5h-700c-103.55 0-187.5 83.945-187.5 187.5v300c0 20.711 16.789 37.5 37.5 37.5s37.5-16.789 37.5-37.5v-300c0-62.133 50.367-112.5 112.5-112.5h700c62.129 0 112.5 50.367 112.5 112.5v700c0 62.129-50.371 112.5-112.5 112.5h-300c-20.711 0-37.5 16.789-37.5 37.5s16.789 37.5 37.5 37.5h300c103.55 0 187.5-83.945 187.5-187.5z" fill-rule="evenodd"/>
 <path d="m787.5 300c0-20.711-16.789-37.5-37.5-37.5h-300c-20.711 0-37.5 16.789-37.5 37.5s16.789 37.5 37.5 37.5h300c20.711 0 37.5-16.789 37.5-37.5z" fill-rule="evenodd"/>
 <path d="m350 637.5c117.36 0 212.5 95.141 212.5 212.5s-95.141 212.5-212.5 212.5-212.5-95.141-212.5-212.5 95.141-212.5 212.5-212.5zm287.5 212.5c0-158.78-128.72-287.5-287.5-287.5s-287.5 128.72-287.5 287.5 128.72 287.5 287.5 287.5 287.5-128.72 287.5-287.5z" fill-rule="evenodd"/>
 <path d="m338.14 841.16c4.8789 4.8867 4.8789 12.793 0 17.68l-64.645 64.645c-14.645 14.645-14.645 38.387 0 53.031 14.645 14.645 38.387 14.645 53.031 0l64.645-64.645c34.172-34.172 34.172-89.57 0-123.74l-64.645-64.645c-14.645-14.645-38.387-14.645-53.031 0-14.645 14.645-14.645 38.387 0 53.031z" fill-rule="evenodd"/>
</svg>
