<?xml version="1.0" encoding="UTF-8"?>
<svg width="1200pt" height="1200pt" version="1.1" viewBox="0 0 1200 1200" xmlns="http://www.w3.org/2000/svg">
 <path d="m550.05 1100c-107.56 0-212.25-34.684-298.53-98.902-86.281-64.215-149.55-154.54-180.43-257.57-30.871-103.03-27.699-213.27 9.0469-314.36 36.746-101.08 105.11-187.62 194.94-246.77 89.832-59.148 196.34-87.754 303.72-81.57 107.38 6.1836 209.9 46.824 292.35 115.9 10.352 8.4609 16.879 20.715 18.129 34.027 1.25 13.309-2.8789 26.566-11.473 36.809-8.5898 10.246-20.926 16.621-34.25 17.703-13.328 1.0859-26.531-3.2109-36.664-11.93-68.691-57.496-154.7-90.266-244.23-93.059-89.535-2.7969-177.41 24.543-249.56 77.641-72.145 53.094-124.38 128.87-148.32 215.19-23.949 86.316-18.23 178.17 16.238 260.85 34.473 82.676 95.699 151.39 173.88 195.12 78.172 43.738 168.77 59.969 257.26 46.09 88.496-13.883 169.77-57.066 230.8-122.64 61.031-65.57 98.281-149.73 105.79-238.99 0.94531-13.277 7.2031-25.609 17.359-34.211 10.152-8.6016 23.348-12.746 36.594-11.496 13.211 1.0977 25.445 7.4023 34.004 17.52 8.5625 10.121 12.754 23.227 11.652 36.438-11.062 124.71-68.277 240.81-160.44 325.56-92.164 84.75-212.64 132.05-337.85 132.64zm112.7-342.09 472.61-472.56c9.6445-9.3203 15.145-22.121 15.262-35.531 0.11719-13.41-5.1602-26.309-14.645-35.789-9.4805-9.4844-22.379-14.762-35.789-14.645-13.41 0.11719-26.211 5.6172-35.531 15.262l-472.61 472.55c-9.8945 10.008-23.59 15.32-37.645 14.602-13.559-0.44531-26.316-6.5234-35.203-16.77l-129.89-165.87c-11.098-13.809-28.676-20.711-46.203-18.148-17.527 2.5625-32.395 14.207-39.074 30.617-6.6836 16.406-4.1836 35.121 6.5664 49.203l130.81 167.04h0.003906c27.008 32.352 66.352 51.883 108.45 53.836 2.2461 0.097656 4.4922 0.14453 6.7344 0.14453 39.809-0.019531 77.984-15.82 106.16-43.945z"/>
</svg>
