<?xml version="1.0" encoding="UTF-8"?>
<svg width="1200pt" height="1200pt" version="1.1" viewBox="0 0 1200 1200" xmlns="http://www.w3.org/2000/svg">
 <path d="m1021.9 635.98c0 22.852-1.5234 45.703-4.5703 68.32 0.58594-4.1016 1.1719-8.3203 1.6406-12.422-5.9766 43.945-17.695 86.836-34.922 127.73 1.5234-3.75 3.1641-7.5 4.6875-11.25-16.875 39.844-38.906 77.461-65.273 111.8 2.4609-3.1641 4.9219-6.3281 7.3828-9.4922-26.602 34.453-57.539 65.391-91.992 91.992 3.1641-2.4609 6.3281-4.9219 9.4922-7.3828-34.336 26.367-71.953 48.398-111.8 65.273 3.75-1.5234 7.5-3.1641 11.25-4.6875-40.898 17.227-83.789 28.945-127.73 34.922 4.1016-0.58594 8.3203-1.1719 12.422-1.6406-45.352 6.0938-91.406 6.0938-136.64 0 4.1016 0.58594 8.3203 1.1719 12.422 1.6406-43.945-5.9766-86.836-17.695-127.73-34.922 3.75 1.5234 7.5 3.1641 11.25 4.6875-39.844-16.875-77.461-38.906-111.8-65.273 3.1641 2.4609 6.3281 4.9219 9.4922 7.3828-34.453-26.602-65.391-57.539-91.992-91.992 2.4609 3.1641 4.9219 6.3281 7.3828 9.4922-26.367-34.336-48.398-71.953-65.273-111.8 1.5234 3.75 3.1641 7.5 4.6875 11.25-17.227-40.898-28.945-83.789-34.922-127.73 0.58594 4.1016 1.1719 8.3203 1.6406 12.422-6.0938-45.352-6.0938-91.406 0-136.64-0.58594 4.1016-1.1719 8.3203-1.6406 12.422 5.9766-43.945 17.695-86.836 34.922-127.73-1.5234 3.75-3.1641 7.5-4.6875 11.25 16.875-39.844 38.906-77.461 65.273-111.8-2.4609 3.1641-4.9219 6.3281-7.3828 9.4922 26.602-34.453 57.539-65.391 91.992-91.992-3.1641 2.4609-6.3281 4.9219-9.4922 7.3828 34.336-26.367 71.953-48.398 111.8-65.273-3.75 1.5234-7.5 3.1641-11.25 4.6875 40.898-17.227 83.789-28.945 127.73-34.922-4.1016 0.58594-8.3203 1.1719-12.422 1.6406 22.617-3.0469 45.469-4.5703 68.32-4.5703-15.586-15.586-31.289-31.289-46.875-46.875v50.156 120.35 145.66 126.45c0 20.391-0.35156 40.781 0 61.172v0.82031c0 25.312 21.445 46.875 46.875 46.875h50.156 120.35 145.66 126.45c20.391 0 40.781 0.35156 61.172 0h0.82031c24.492 0 48.047-21.562 46.875-46.875-1.1719-25.43-20.625-46.875-46.875-46.875h-50.156-120.35-145.66-126.45c-20.391 0-40.781-0.46875-61.172 0h-0.82031c15.586 15.586 31.289 31.289 46.875 46.875v-50.156-120.35-145.66-126.45c0-20.391 0.35156-40.781 0-61.172v-0.82031c0-25.312-21.445-46.875-46.875-46.875-87.188 0.11719-172.97 20.977-250.78 60.234-75.117 37.852-139.22 93.75-190.08 160.31-49.102 64.219-83.789 140.74-99.492 220.08-17.109 86.602-14.648 176.72 9.6094 261.8 23.086 81.211 65.273 156.21 121.64 219.02 27.773 31.055 59.531 58.242 93.516 82.383 34.57 24.609 72.07 43.711 111.21 59.883 77.227 31.758 163.71 44.531 246.8 37.617 85.43-7.1484 168.52-32.812 241.99-77.227 71.836-43.477 133.12-103.24 178.95-173.67 23.086-35.508 41.484-73.945 56.016-113.67 14.883-40.664 23.555-82.852 28.594-125.74 2.3438-19.805 3.3984-39.609 3.5156-59.531 0-24.492-21.562-48.047-46.875-46.875-25.43 1.1719-46.875 20.625-46.875 46.875z"/>
 <path d="m1140.6 444.49h-42.891-103.01-125.27-107.81c-17.461 0-35.039-0.35156-52.5 0h-0.70312l46.875 46.875v-42.891-103.01-125.27-107.81c0-17.461 0.35156-35.039 0-52.5v-0.70312c-15.586 15.586-31.289 31.289-46.875 46.875 19.57 0 39.141 1.2891 58.594 3.9844-4.1016-0.58594-8.3203-1.1719-12.422-1.6406 37.617 5.1562 74.531 15.234 109.57 30-3.75-1.5234-7.5-3.1641-11.25-4.6875 34.219 14.531 66.445 33.398 95.859 56.016-3.1641-2.4609-6.3281-4.9219-9.4922-7.3828 29.18 22.617 55.43 48.867 78.047 78.047-2.4609-3.1641-4.9219-6.3281-7.3828-9.4922 22.734 29.414 41.484 61.641 56.016 95.859-1.5234-3.75-3.1641-7.5-4.6875-11.25 14.766 35.039 24.844 71.836 30 109.57-0.58594-4.1016-1.1719-8.3203-1.6406-12.422 2.5781 19.453 3.8672 39.023 3.9844 58.594 0 24.492 21.562 48.047 46.875 46.875s46.875-20.625 46.875-46.875c-0.23438-97.031-29.883-194.77-86.367-274.1-14.766-20.742-30.82-40.781-48.516-59.062-17.578-18.281-36.914-34.453-56.953-49.805-37.852-28.945-80.273-51.094-125.16-67.617-51.445-18.984-106.99-28.008-161.72-28.125-25.312 0-46.875 21.562-46.875 46.875v42.891 103.01 125.27 107.81c0 17.461-0.35156 35.039 0 52.5v0.70312c0 25.312 21.445 46.875 46.875 46.875h42.891 103.01 125.27 107.81c17.461 0 35.039 0.35156 52.5 0h0.70312c24.492 0 48.047-21.562 46.875-46.875-1.2891-25.547-20.742-47.109-47.109-47.109z"/>
</svg>
