<?xml version="1.0" encoding="UTF-8"?>
<svg width="1200pt" height="1200pt" version="1.1" viewBox="0 0 1200 1200" xmlns="http://www.w3.org/2000/svg">
 <path d="m1033.6 635.98c0 22.852-1.5234 45.703-4.5703 68.32 0.46875-3.1641 0.82031-6.2109 1.2891-9.375-5.9766 43.945-17.695 86.836-34.922 127.73l3.5156-8.4375c-9.8438 23.32-21.445 45.938-34.688 67.5-6.6797 10.898-13.828 21.68-21.328 31.992-1.7578 2.4609-3.6328 4.9219-5.5078 7.3828-0.82031 1.0547-1.7578 2.8125-2.8125 3.6328-0.11719 0.11719 5.8594-7.5 2.6953-3.5156-4.1016 5.2734-8.3203 10.43-12.539 15.469-16.172 19.102-33.75 37.031-52.617 53.555-4.5703 4.1016-9.2578 7.9688-14.062 11.953-2.3438 1.9922-4.8047 3.8672-7.1484 5.7422-0.82031 0.58594-1.6406 1.2891-2.4609 1.875 9.6094-7.6172 3.1641-2.4609 1.0547-0.82031-10.195 7.7344-20.742 15-31.641 21.914-23.906 15.352-49.102 28.477-75.352 39.609 2.8125-1.1719 5.625-2.3438 8.4375-3.5156-40.898 17.227-83.789 28.945-127.73 34.922 3.1641-0.46875 6.2109-0.82031 9.375-1.2891-45.352 6.0938-91.406 6.0938-136.64 0 3.1641 0.46875 6.2109 0.82031 9.375 1.2891-43.945-5.9766-86.836-17.695-127.73-34.922 2.8125 1.1719 5.625 2.3438 8.4375 3.5156-23.32-9.8438-45.938-21.445-67.5-34.688-10.898-6.6797-21.68-13.828-31.992-21.328-2.4609-1.7578-4.9219-3.6328-7.3828-5.5078-1.0547-0.82031-2.8125-1.7578-3.6328-2.8125-0.11719-0.11719 7.5 5.8594 3.5156 2.6953-5.2734-4.1016-10.43-8.3203-15.469-12.539-19.102-16.172-37.031-33.75-53.555-52.617-4.1016-4.5703-7.9688-9.2578-11.953-14.062-1.9922-2.3438-3.8672-4.8047-5.7422-7.1484-0.58594-0.82031-1.2891-1.6406-1.875-2.4609 7.6172 9.6094 2.4609 3.1641 0.82031 1.0547-7.7344-10.195-15-20.742-21.914-31.641-15.352-23.906-28.477-49.102-39.609-75.352 1.1719 2.8125 2.3438 5.625 3.5156 8.4375-17.227-40.898-28.945-83.789-34.922-127.73 0.46875 3.1641 0.82031 6.2109 1.2891 9.375-6.0938-45.352-6.0938-91.406 0-136.64-0.46875 3.1641-0.82031 6.2109-1.2891 9.375 5.9766-43.945 17.695-86.836 34.922-127.73-1.1719 2.8125-2.3438 5.625-3.5156 8.4375 9.8438-23.32 21.445-45.938 34.688-67.5 6.6797-10.898 13.828-21.68 21.328-31.992 1.7578-2.4609 3.6328-4.9219 5.5078-7.3828 0.82031-1.0547 1.7578-2.8125 2.8125-3.6328 0.11719-0.11719-5.8594 7.5-2.6953 3.5156 4.1016-5.2734 8.3203-10.43 12.539-15.469 16.172-19.102 33.75-37.031 52.617-53.555 4.5703-4.1016 9.2578-7.9688 14.062-11.953 2.3438-1.9922 4.8047-3.8672 7.1484-5.7422 0.82031-0.58594 1.6406-1.2891 2.4609-1.875-9.6094 7.6172-3.1641 2.4609-1.0547 0.82031 10.195-7.7344 20.742-15 31.641-21.914 23.906-15.352 49.102-28.477 75.352-39.609l-8.4375 3.5156c40.898-17.227 83.789-28.945 127.73-34.922-3.1641 0.46875-6.2109 0.82031-9.375 1.2891 22.617-3.0469 45.469-4.5703 68.32-4.5703l-35.156-35.156v50.156 120.35 145.66 126.45c0 20.391-0.46875 40.781 0 61.172v0.82031c0 18.984 16.055 35.156 35.156 35.156h50.156 120.35 145.66 126.45c20.391 0 40.781 0.46875 61.172 0h0.82031c18.398 0 35.977-16.172 35.156-35.156-0.82031-19.102-15.469-35.156-35.156-35.156h-50.156-120.35-145.66-126.45c-20.391 0-40.781-0.58594-61.172 0h-0.82031l35.156 35.156v-50.156-120.35-145.66-126.45c0-20.391 0.46875-40.781 0-61.172v-0.82031c0-18.984-16.055-35.156-35.156-35.156-85.078 0.11719-168.98 20.391-244.8 58.711-73.242 36.914-136.17 91.172-185.86 156.21-48.516 63.516-82.734 138.87-98.203 217.27-17.109 84.141-14.414 172.38 9.1406 255.23 22.617 79.336 63.633 152.58 118.71 213.87 54.961 61.289 123.75 108.05 199.57 139.22 76.406 31.406 161.48 44.062 243.75 37.148 83.32-6.9141 164.41-32.227 236.02-75.586 70.195-42.422 129.96-100.78 174.73-169.45 45.82-70.195 73.125-150.47 82.969-233.44 2.3438-19.805 3.3984-39.609 3.5156-59.531 0-18.398-16.172-35.977-35.156-35.156-19.102 0.82031-35.156 15.469-35.156 35.156z"/>
 <path d="m1140.6 479.41h-45.352-108.4-131.72-113.44c-18.398 0-37.031-0.58594-55.43 0h-0.82031l35.156 35.156v-45.352-108.4-131.72-113.44c0-18.398 0.58594-37.031 0-55.43v-0.82031l-35.156 35.156c20.625 0 41.25 1.4062 61.758 4.1016-3.1641-0.46875-6.2109-0.82031-9.375-1.2891 39.727 5.5078 78.516 16.055 115.43 31.641-2.8125-1.1719-5.625-2.3438-8.4375-3.5156 20.859 8.9062 41.133 19.219 60.469 31.172 9.6094 5.8594 18.984 12.188 28.125 18.75 2.4609 1.7578 4.9219 3.6328 7.3828 5.5078 0.82031 0.58594 1.6406 1.2891 2.4609 1.875 5.0391 3.75-7.1484-5.625-2.2266-1.7578 4.4531 3.5156 8.7891 7.0312 13.125 10.664 17.227 14.531 33.281 30.352 48.164 47.227 3.75 4.2188 7.3828 8.5547 10.898 12.891 1.6406 1.9922 3.1641 3.9844 4.8047 5.9766 1.6406 1.9922 5.2734 7.0312-1.7578-2.2266 0.9375 1.1719 1.875 2.4609 2.8125 3.6328 6.7969 9.0234 13.242 18.281 19.336 27.773 13.945 21.68 26.016 44.531 36.094 68.32-1.1719-2.8125-2.3438-5.625-3.5156-8.4375 15.586 36.914 26.133 75.703 31.641 115.43-0.46875-3.1641-0.82031-6.2109-1.2891-9.375 2.6953 20.508 4.1016 41.133 4.1016 61.758 0 18.398 16.172 35.977 35.156 35.156 18.984-0.82031 35.156-15.469 35.156-35.156-0.23438-100.08-30.938-200.16-89.062-281.72-58.711-82.5-140.04-144.84-234.96-179.77-52.969-19.453-109.92-28.945-166.29-28.945-18.984 0-35.156 16.172-35.156 35.156v45.352 108.4 131.72 113.44c0 18.516-0.35156 36.914 0 55.43v0.82031c0 18.984 16.055 35.156 35.156 35.156h45.352 108.4 131.72 113.44c18.516 0 36.914 0.35156 55.43 0h0.82031c18.398 0 35.977-16.172 35.156-35.156-0.82031-19.102-15.352-35.156-35.156-35.156z"/>
</svg>
