<?xml version="1.0" encoding="UTF-8"?>
<svg width="1200pt" height="1200pt" version="1.1" viewBox="0 0 1200 1200" xmlns="http://www.w3.org/2000/svg">
 <path d="m1162.5 600c0 179.06-85.266 347.39-229.64 453.37-144.32 105.94-330.47 136.87-501.32 83.25-170.81-53.625-305.95-185.39-363.84-354.84-57.891-169.45-31.641-356.29 70.688-503.26 8.4844-12.328 21.562-20.719 36.281-23.391 14.719-2.625 29.906 0.70313 42.188 9.2344 12.234 8.5781 20.578 21.656 23.203 36.422 2.5781 14.719-0.79688 29.859-9.4219 42.094-75.375 108.33-99.422 244.22-65.812 371.81 33.656 127.6 121.6 234 240.56 291.05 118.97 57.047 257.02 59.016 377.58 5.3906 120.52-53.672 211.45-157.5 248.72-284.06 37.266-126.61 17.109-263.16-55.172-373.55-72.281-110.39-189.32-183.52-320.26-200.02v121.03c0 31.078-25.172 56.25-56.25 56.25s-56.25-25.172-56.25-56.25v-180.79c0-14.906 5.9062-29.25 16.453-39.797 10.547-10.547 24.891-16.453 39.797-16.453 149.11 0.1875 292.13 59.484 397.55 164.95 105.47 105.42 164.76 248.44 164.95 397.55zm-602.26 39.75c21.938 21.984 57.562 21.984 79.5 0 21.984-21.938 21.984-57.562 0-79.5l-216.94-216.98c-21.984-21.891-57.516-21.844-79.453 0.09375s-21.984 57.469-0.09375 79.453z"/>
</svg>
